<svg width="18" height="15" viewBox="0 0 18 15" fill="none" xmlns="http://www.w3.org/2000/svg">
<path d="M18 1.73077C17.325 2.07692 16.65 2.19231 15.8625 2.30769C16.65 1.84615 17.2125 1.15385 17.4375 0.230769C16.7625 0.692307 15.975 0.923077 15.075 1.15385C14.4 0.461538 13.3875 0 12.375 0C10.0125 0 8.2125 2.30769 8.775 4.61538C5.7375 4.5 3.0375 3 1.125 0.692308C0.1125 2.42308 0.675 4.61538 2.25 5.76923C1.6875 5.76923 1.125 5.53846 0.5625 5.30769C0.5625 7.03846 1.8 8.65385 3.4875 9.11538C2.925 9.23077 2.3625 9.34615 1.8 9.23077C2.25 10.7308 3.6 11.8846 5.2875 11.8846C3.9375 12.9231 1.9125 13.5 0 13.2692C1.6875 14.3077 3.6 15 5.625 15C12.4875 15 16.3125 9.11538 16.0875 3.69231C16.875 3.23077 17.55 2.53846 18 1.73077Z" fill="white"/>
</svg>
