<svg width="191" height="60" viewBox="0 0 191 60" fill="none" xmlns="http://www.w3.org/2000/svg">
<path d="M60.5536 19.6457V10.4272H63.1067C64.7099 10.4272 65.9241 10.7957 66.7494 11.5329C67.5789 12.27 67.9937 13.3993 67.9937 14.9207C67.9937 16.4036 67.5445 17.5629 66.6462 18.3986C65.7479 19.23 64.5337 19.6457 63.0036 19.6457H60.5536ZM61.6367 11.4043V18.6686H63.0164C64.2285 18.6686 65.172 18.36 65.8468 17.7429C66.5216 17.1257 66.859 16.1936 66.859 14.9465C66.859 13.7079 66.5474 12.8079 65.9241 12.2465C65.3009 11.685 64.3532 11.4043 63.0809 11.4043H61.6367Z" fill="white"/>
<path d="M72.3713 19.8C71.3441 19.8 70.5403 19.4957 69.9601 18.8872C69.3798 18.2743 69.0897 17.4557 69.0897 16.4315C69.0897 15.3729 69.4121 14.5222 70.0568 13.8793C70.7015 13.2322 71.5074 12.9086 72.4745 12.9086C73.4631 12.9086 74.2453 13.2236 74.8213 13.8536C75.4015 14.4793 75.6916 15.3043 75.6916 16.3286C75.6916 17.3186 75.3929 18.1457 74.7955 18.81C74.2023 19.47 73.3943 19.8 72.3713 19.8ZM72.4294 18.8872C73.0956 18.8872 73.6242 18.6665 74.0154 18.225C74.4108 17.7793 74.6085 17.16 74.6085 16.3672C74.6085 15.6129 74.4108 15.0022 74.0154 14.535C73.6242 14.0636 73.0956 13.8279 72.4294 13.8279C71.7631 13.8279 71.2194 14.0657 70.7982 14.5415C70.3813 15.0129 70.1728 15.63 70.1728 16.3929C70.1728 17.1943 70.3813 17.8115 70.7982 18.2443C71.2194 18.6729 71.7631 18.8872 72.4294 18.8872Z" fill="white"/>
<path d="M85.6074 13.0629L83.6281 19.6457H82.5321L81.1718 14.9336C81.1374 14.8093 81.1137 14.7279 81.1008 14.6893C81.0922 14.6465 81.0794 14.5757 81.0622 14.4772H81.0364C81.0149 14.5757 80.9955 14.6486 80.9783 14.6957C80.9655 14.7429 80.9418 14.8179 80.9074 14.9207L79.431 19.6457H78.3479L76.3493 13.0629H77.4582L78.825 17.9293C78.8465 18.0022 78.8637 18.0707 78.8766 18.135C78.8895 18.1993 78.9045 18.2786 78.9217 18.3729H78.9604C78.9819 18.2743 79.0012 18.195 79.0184 18.135C79.0356 18.0707 79.0571 17.9979 79.0829 17.9165L80.6044 13.0629H81.5973L82.9641 17.9422C82.9813 18.0022 82.9985 18.0686 83.0157 18.1415C83.0329 18.21 83.0522 18.2872 83.0737 18.3729H83.1124C83.1339 18.2872 83.1489 18.2207 83.1575 18.1736C83.1704 18.1222 83.1919 18.045 83.222 17.9422L84.563 13.0629H85.6074Z" fill="white"/>
<path d="M92.1965 19.6457H91.1391V15.7372C91.1391 15.09 91.0145 14.61 90.7652 14.2972C90.5159 13.98 90.1441 13.8215 89.6498 13.8215C89.0911 13.8215 88.6376 14.0186 88.2895 14.4129C87.9456 14.8029 87.7737 15.2957 87.7737 15.8915V19.6457H86.7164V13.0629H87.7737V14.0015H87.7995C88.0488 13.6372 88.3539 13.365 88.715 13.185C89.076 13.0007 89.4929 12.9086 89.9657 12.9086C90.6878 12.9086 91.2401 13.1422 91.6227 13.6093C92.0052 14.0722 92.1965 14.7429 92.1965 15.6215V19.6457Z" fill="white"/>
<path d="M94.0662 19.6457V9.90002H95.1235V19.6457H94.0662Z" fill="white"/>
<path d="M99.9653 19.8C98.9381 19.8 98.1343 19.4957 97.5541 18.8872C96.9738 18.2743 96.6837 17.4557 96.6837 16.4315C96.6837 15.3729 97.0061 14.5222 97.6508 13.8793C98.2955 13.2322 99.1014 12.9086 100.069 12.9086C101.057 12.9086 101.839 13.2236 102.415 13.8536C102.996 14.4793 103.286 15.3043 103.286 16.3286C103.286 17.3186 102.987 18.1457 102.389 18.81C101.796 19.47 100.988 19.8 99.9653 19.8ZM100.023 18.8872C100.69 18.8872 101.218 18.6665 101.609 18.225C102.005 17.7793 102.203 17.16 102.203 16.3672C102.203 15.6129 102.005 15.0022 101.609 14.535C101.218 14.0636 100.69 13.8279 100.023 13.8279C99.3572 13.8279 98.8134 14.0657 98.3922 14.5415C97.9753 15.0129 97.7668 15.63 97.7668 16.3929C97.7668 17.1943 97.9753 17.8115 98.3922 18.2443C98.8134 18.6729 99.3572 18.8872 100.023 18.8872Z" fill="white"/>
<path d="M109.52 19.6457H108.463V18.7715H108.437C108.213 19.1015 107.93 19.3565 107.586 19.5365C107.246 19.7122 106.87 19.8 106.458 19.8C105.8 19.8 105.284 19.6243 104.91 19.2729C104.541 18.9215 104.356 18.4822 104.356 17.955C104.356 17.3379 104.549 16.86 104.936 16.5215C105.323 16.1786 105.865 15.9665 106.561 15.885L108.463 15.6665V15.2486C108.463 14.7729 108.338 14.4172 108.089 14.1815C107.844 13.9415 107.506 13.8215 107.077 13.8215C106.668 13.8215 106.331 13.9136 106.064 14.0979C105.798 14.2779 105.594 14.5307 105.452 14.8565L104.53 14.4772C104.745 13.98 105.076 13.5943 105.523 13.32C105.974 13.0457 106.511 12.9086 107.135 12.9086C107.904 12.9086 108.493 13.1143 108.901 13.5257C109.314 13.9329 109.52 14.505 109.52 15.2422V19.6457ZM108.463 16.9715V16.5215L106.632 16.7272C106.223 16.7743 105.923 16.8922 105.729 17.0807C105.536 17.265 105.439 17.5115 105.439 17.82C105.439 18.1586 105.551 18.4307 105.774 18.6365C105.998 18.8379 106.29 18.9386 106.651 18.9386C107.193 18.9386 107.629 18.7543 107.96 18.3857C108.295 18.0129 108.463 17.5415 108.463 16.9715Z" fill="white"/>
<path d="M116.038 18.6815C115.793 19.0457 115.479 19.3243 115.097 19.5172C114.719 19.7057 114.297 19.8 113.833 19.8C112.909 19.8 112.194 19.5065 111.686 18.9193C111.183 18.3279 110.932 17.5243 110.932 16.5086C110.932 15.3943 111.218 14.5157 111.79 13.8729C112.361 13.23 113.107 12.9086 114.027 12.9086C114.474 12.9086 114.869 12.99 115.213 13.1529C115.561 13.3157 115.836 13.5386 116.038 13.8215H116.064V9.90002H117.121V19.6457H116.064V18.6815H116.038ZM112.015 16.4572C112.015 17.2029 112.187 17.7943 112.531 18.2315C112.879 18.6686 113.358 18.8872 113.969 18.8872C114.613 18.8872 115.123 18.6772 115.497 18.2572C115.875 17.8372 116.064 17.3079 116.064 16.6693V15.6986C116.064 15.1757 115.881 14.7322 115.516 14.3679C115.155 14.0036 114.686 13.8215 114.11 13.8215C113.47 13.8215 112.961 14.0465 112.583 14.4965C112.204 14.9465 112.015 15.6 112.015 16.4572Z" fill="white"/>
<path d="M125.058 19.8C124.031 19.8 123.227 19.4957 122.647 18.8872C122.066 18.2743 121.776 17.4557 121.776 16.4315C121.776 15.3729 122.099 14.5222 122.743 13.8793C123.388 13.2322 124.194 12.9086 125.161 12.9086C126.15 12.9086 126.932 13.2236 127.508 13.8536C128.088 14.4793 128.378 15.3043 128.378 16.3286C128.378 17.3186 128.079 18.1457 127.482 18.81C126.889 19.47 126.081 19.8 125.058 19.8ZM125.116 18.8872C125.782 18.8872 126.311 18.6665 126.702 18.225C127.097 17.7793 127.295 17.16 127.295 16.3672C127.295 15.6129 127.097 15.0022 126.702 14.535C126.311 14.0636 125.782 13.8279 125.116 13.8279C124.45 13.8279 123.906 14.0657 123.485 14.5415C123.068 15.0129 122.859 15.63 122.859 16.3929C122.859 17.1943 123.068 17.8115 123.485 18.2443C123.906 18.6729 124.45 18.8872 125.116 18.8872Z" fill="white"/>
<path d="M135.418 19.6457H134.361V15.7372C134.361 15.09 134.237 14.61 133.987 14.2972C133.738 13.98 133.366 13.8215 132.872 13.8215C132.313 13.8215 131.86 14.0186 131.511 14.4129C131.168 14.8029 130.996 15.2957 130.996 15.8915V19.6457H129.938V13.0629H130.996V14.0015H131.021C131.271 13.6372 131.576 13.365 131.937 13.185C132.298 13.0007 132.715 12.9086 133.188 12.9086C133.91 12.9086 134.462 13.1422 134.845 13.6093C135.227 14.0722 135.418 14.7429 135.418 15.6215V19.6457Z" fill="white"/>
<path d="M143.813 19.2279C143.619 19.4207 143.407 19.5622 143.174 19.6522C142.942 19.7422 142.669 19.7872 142.356 19.7872C141.836 19.7872 141.434 19.6436 141.15 19.3565C140.866 19.065 140.725 18.6493 140.725 18.1093V13.9629H139.59V13.0629H140.725V11.5072L141.782 11.3207V13.0629H143.548V13.9629H141.782V18.0193C141.782 18.3322 141.842 18.5593 141.962 18.7007C142.083 18.8422 142.272 18.9129 142.53 18.9129C142.659 18.9129 142.781 18.8872 142.897 18.8357C143.018 18.7843 143.142 18.6857 143.271 18.54L143.813 19.2279Z" fill="white"/>
<path d="M150.582 19.6457H149.525V15.7372C149.525 15.09 149.4 14.61 149.151 14.2972C148.906 13.98 148.534 13.8215 148.036 13.8215C147.477 13.8215 147.023 14.0186 146.675 14.4129C146.331 14.8029 146.16 15.2979 146.16 15.8979V19.6457H145.102V9.90002H146.16V14.0015H146.185C146.435 13.6372 146.74 13.365 147.101 13.185C147.462 13.0007 147.879 12.9086 148.352 12.9086C149.074 12.9086 149.626 13.14 150.008 13.6029C150.391 14.0657 150.582 14.7386 150.582 15.6215V19.6457Z" fill="white"/>
<path d="M157.861 16.5407H153.097C153.097 17.355 153.29 17.9507 153.677 18.3279C154.068 18.7007 154.532 18.8872 155.07 18.8872C155.474 18.8872 155.828 18.795 156.133 18.6107C156.443 18.4222 156.699 18.1436 156.901 17.775L157.764 18.2122C157.532 18.6836 157.182 19.0672 156.714 19.3629C156.249 19.6543 155.678 19.8 154.999 19.8C154.122 19.8 153.402 19.5107 152.839 18.9322C152.28 18.3536 152.001 17.5029 152.001 16.38C152.001 15.3815 152.284 14.5543 152.852 13.8986C153.419 13.2386 154.145 12.9086 155.031 12.9086C155.929 12.9086 156.625 13.1807 157.12 13.725C157.614 14.265 157.861 15.0193 157.861 15.9879V16.5407ZM156.778 15.66C156.778 15.09 156.621 14.6422 156.307 14.3165C155.994 13.9865 155.562 13.8215 155.012 13.8215C154.479 13.8215 154.042 13.9972 153.703 14.3486C153.367 14.7 153.168 15.1372 153.103 15.66H156.778Z" fill="white"/>
<path d="M59.6498 45.2171L66.5322 26.6971H69.9862L76.817 45.2171H73.5176L71.9195 40.826H64.4701L62.9364 45.2171H59.6498ZM65.2949 38.2172H71.0817L68.5556 30.8686C68.4869 30.6792 68.4268 30.5113 68.3752 30.3649C68.3322 30.2099 68.2807 30.0205 68.2205 29.7967H68.1561C68.0874 30.0033 68.0315 30.1841 67.9886 30.3391C67.9456 30.4941 67.8897 30.6706 67.821 30.8686L65.2949 38.2172Z" fill="white"/>
<path d="M80.3113 43.8352H80.2597V51.3H77.2568V31.9922H80.2597V33.8778H80.3113C80.8354 33.1459 81.4712 32.5992 82.2187 32.2376C82.9749 31.8673 83.8212 31.6822 84.7577 31.6822C86.5105 31.6822 87.8767 32.2634 88.8562 33.4258C89.8357 34.5881 90.3255 36.2068 90.3255 38.2818C90.3255 40.4515 89.7756 42.2036 88.6758 43.5381C87.5846 44.8641 86.1239 45.527 84.2938 45.527C83.4431 45.527 82.6827 45.385 82.0125 45.1009C81.3509 44.8167 80.7839 44.3948 80.3113 43.8352ZM80.2211 38.0364V39.6637C80.2211 40.6366 80.5433 41.4502 81.1877 42.1046C81.8407 42.7589 82.6612 43.0861 83.6493 43.0861C84.7663 43.0861 85.6427 42.6599 86.2786 41.8075C86.923 40.9552 87.2452 39.8057 87.2452 38.3593C87.2452 36.9558 86.9487 35.9011 86.3559 35.1951C85.7716 34.4805 84.9639 34.1232 83.9329 34.1232C82.8417 34.1232 81.9481 34.4891 81.2521 35.2209C80.5648 35.9528 80.2211 36.8913 80.2211 38.0364Z" fill="white"/>
<path d="M94.5801 43.8352H94.5286V51.3H91.5256V31.9922H94.5286V33.8778H94.5801C95.1043 33.1459 95.7401 32.5992 96.4876 32.2376C97.2437 31.8673 98.09 31.6822 99.0266 31.6822C100.779 31.6822 102.146 32.2634 103.125 33.4258C104.105 34.5881 104.594 36.2068 104.594 38.2818C104.594 40.4515 104.044 42.2036 102.945 43.5381C101.853 44.8641 100.393 45.527 98.5626 45.527C97.712 45.527 96.9516 45.385 96.2814 45.1009C95.6198 44.8167 95.0527 44.3948 94.5801 43.8352ZM94.4899 38.0364V39.6637C94.4899 40.6366 94.8121 41.4502 95.4565 42.1046C96.1096 42.7589 96.9301 43.0861 97.9182 43.0861C99.0352 43.0861 99.9116 42.6599 100.547 41.8075C101.192 40.9552 101.514 39.8057 101.514 38.3593C101.514 36.9558 101.218 35.9011 100.625 35.1951C100.04 34.4805 99.2328 34.1232 98.2017 34.1232C97.1105 34.1232 96.217 34.4891 95.521 35.2209C94.8336 35.9528 94.4899 36.8913 94.4899 38.0364Z" fill="white"/>
<path d="M109.843 41.7171L112.511 40.374C112.897 41.2092 113.422 41.8334 114.083 42.2467C114.753 42.6599 115.535 42.8666 116.429 42.8666C117.494 42.8666 118.315 42.6341 118.891 42.1692C119.475 41.7042 119.767 41.0542 119.767 40.219C119.767 39.4097 119.479 38.7639 118.903 38.2818C118.328 37.7996 117.443 37.4165 116.248 37.1323C114.307 36.676 112.902 36.0303 112.034 35.1951C111.166 34.3513 110.732 33.2191 110.732 31.7985C110.732 30.1023 111.321 28.7807 112.498 27.8336C113.684 26.8779 115.144 26.4 116.88 26.4C118.186 26.4 119.337 26.6885 120.334 27.2653C121.331 27.8336 122.13 28.6817 122.731 29.8096L120.141 31.0752C119.745 30.3434 119.277 29.8182 118.736 29.4996C118.195 29.181 117.537 29.0218 116.764 29.0218C115.802 29.0218 115.054 29.2413 114.521 29.6804C113.989 30.1109 113.722 30.6878 113.722 31.411C113.722 32.1343 113.967 32.7025 114.457 33.1158C114.947 33.5291 115.827 33.8821 117.099 34.1748C119.058 34.6139 120.489 35.2898 121.391 36.2025C122.302 37.1151 122.757 38.342 122.757 39.8832C122.757 41.5277 122.211 42.8795 121.12 43.9385C120.029 44.9975 118.474 45.527 116.455 45.527C114.899 45.527 113.542 45.1956 112.382 44.5326C111.231 43.8696 110.384 42.9311 109.843 41.7171Z" fill="white"/>
<path d="M130.955 44.326C130.56 44.7048 130.101 44.9975 129.576 45.2042C129.052 45.4108 128.464 45.5141 127.811 45.5141C126.556 45.5141 125.607 45.1999 124.962 44.5713C124.327 43.9342 124.009 43.0043 124.009 41.7817V34.3427H121.792V31.9922H124.009V28.7505L126.999 28.221V31.9922H130.363V34.3427H126.999V41.6784C126.999 42.2036 127.102 42.5911 127.308 42.8407C127.523 43.0904 127.845 43.2153 128.275 43.2153C128.498 43.2153 128.717 43.1722 128.932 43.0861C129.147 43 129.375 42.8321 129.615 42.5824L130.955 44.326Z" fill="white"/>
<path d="M137.659 45.527C135.571 45.527 133.913 44.9114 132.684 43.6802C131.455 42.449 130.841 40.7916 130.841 38.708C130.85 36.5985 131.503 34.9024 132.8 33.6195C134.097 32.328 135.782 31.6822 137.852 31.6822C139.932 31.6822 141.573 32.3151 142.776 33.5807C143.978 34.8464 144.58 36.4823 144.58 38.4884C144.58 40.5376 143.944 42.2251 142.672 43.5511C141.409 44.8684 139.738 45.527 137.659 45.527ZM137.775 43.0861C138.961 43.0861 139.88 42.6815 140.533 41.8721C141.186 41.0542 141.513 39.9521 141.513 38.5659C141.513 37.2314 141.182 36.1594 140.52 35.3501C139.867 34.5321 138.952 34.1232 137.775 34.1232C136.598 34.1232 135.657 34.545 134.952 35.3888C134.248 36.224 133.896 37.3088 133.896 38.6434C133.896 40.0296 134.244 41.1187 134.94 41.9109C135.635 42.6944 136.581 43.0861 137.775 43.0861Z" fill="white"/>
<path d="M153.307 34.6914C153.066 34.5967 152.817 34.5235 152.559 34.4719C152.31 34.4116 152.044 34.3815 151.76 34.3815C150.875 34.3815 150.158 34.7775 149.608 35.5696C149.058 36.3617 148.783 37.3949 148.783 38.6692V45.2171H145.78V31.9922H148.783V34.3815H148.835C149.144 33.5377 149.599 32.8919 150.201 32.4442C150.802 31.9879 151.498 31.7597 152.289 31.7597C152.624 31.7597 152.933 31.7856 153.217 31.8372C153.5 31.8889 153.805 31.9879 154.132 32.1343L153.307 34.6914Z" fill="white"/>
<path d="M165.694 39.3408H156.582C156.608 40.6151 156.951 41.5751 157.613 42.2208C158.283 42.858 159.104 43.1765 160.075 43.1765C160.762 43.1765 161.372 43.0172 161.905 42.6987C162.438 42.3715 162.889 41.8893 163.258 41.2522L165.565 42.505C164.964 43.4693 164.195 44.214 163.258 44.7392C162.33 45.2644 161.235 45.527 159.972 45.527C158.03 45.527 156.475 44.9416 155.306 43.7706C154.138 42.5997 153.553 40.9164 153.553 38.7209C153.553 36.6287 154.15 34.9325 155.345 33.6324C156.548 32.3323 158.051 31.6822 159.856 31.6822C161.712 31.6822 163.146 32.2376 164.16 33.3483C165.183 34.4589 165.694 36.069 165.694 38.1784V39.3408ZM162.794 37.1969C162.794 36.1637 162.536 35.363 162.021 34.7947C161.505 34.2265 160.801 33.9423 159.907 33.9423C158.971 33.9423 158.21 34.2566 157.626 34.8851C157.042 35.5051 156.689 36.2756 156.569 37.1969H162.794Z" fill="white"/>
<path d="M34.2582 16.9899C35.6061 15.5083 36.3604 13.4744 36.2411 11.4C34.3766 11.4 32.2149 12.4859 30.8463 14.0861C29.775 15.4094 28.625 17.4838 29.0414 19.5573C30.9655 19.7947 33.0486 18.5902 34.2582 16.9899Z" fill="white"/>
<path d="M42.6819 23.5639C42.3064 23.787 38.7621 25.8925 38.7621 30.3825C38.7709 30.6611 38.7995 30.9255 38.8321 31.1858H38.8305C39.4178 35.8608 43.545 37.5323 43.6197 37.5323C43.6057 37.55 43.5748 37.6413 43.5231 37.7938C43.2839 38.4994 42.6009 40.5144 41.1011 42.6085C39.6538 44.8024 38.0468 47.0144 35.6069 47.0144C34.4881 47.0144 33.7151 46.6745 32.9144 46.3224C32.0543 45.9442 31.1621 45.5519 29.775 45.5519C28.241 45.5519 27.2939 45.9679 26.4099 46.3562C25.6364 46.6959 24.9112 47.0144 23.8834 47.0144C21.4435 47.0144 19.7181 44.6837 18.1914 42.5104C16.2498 39.7254 14.6038 35.3891 14.479 31.1858C14.4779 31.1429 14.4745 31.0997 14.4712 31.0564C14.4676 31.0094 14.464 30.9625 14.4631 30.916C14.4226 28.6446 14.8597 26.4119 15.97 24.5157C17.5365 21.8683 20.334 20.071 23.3883 20.0116C24.7243 19.9669 25.9765 20.4947 27.0708 20.9559C27.8936 21.3027 28.6272 21.6119 29.2401 21.6119C29.7977 21.6119 30.5529 21.3463 31.4479 21.0315C32.7497 20.5736 34.3474 20.0116 36.0631 20.0116C37.3125 20.0124 40.6457 20.3876 42.7089 23.5477C42.7037 23.551 42.6946 23.5564 42.6819 23.5639Z" fill="white"/>
</svg>
